<?xml version="1.0" encoding="UTF-8" standalone="no"?>
<!-- Created with Inkscape (http://www.inkscape.org/) -->

<svg
   xmlns:dc="http://purl.org/dc/elements/1.1/"
   xmlns:cc="http://creativecommons.org/ns#"
   xmlns:rdf="http://www.w3.org/1999/02/22-rdf-syntax-ns#"
   xmlns:svg="http://www.w3.org/2000/svg"
   xmlns="http://www.w3.org/2000/svg"
   xmlns:sodipodi="http://sodipodi.sourceforge.net/DTD/sodipodi-0.dtd"
   xmlns:inkscape="http://www.inkscape.org/namespaces/inkscape"
   width="512"
   height="512"
   id="svg3048"
   version="1.1"
   inkscape:version="0.48.5 r10040"
   sodipodi:docname="Novo documento 3">
  <defs
     id="defs3050" />
  <sodipodi:namedview
     id="base"
     pagecolor="#ffffff"
     bordercolor="#666666"
     borderopacity="1.0"
     inkscape:pageopacity="0.0"
     inkscape:pageshadow="2"
     inkscape:zoom="0.35"
     inkscape:cx="-5.7142857"
     inkscape:cy="520"
     inkscape:document-units="px"
     inkscape:current-layer="layer1"
     showgrid="false"
     inkscape:window-width="1366"
     inkscape:window-height="717"
     inkscape:window-x="0"
     inkscape:window-y="0"
     inkscape:window-maximized="1" />
  <metadata
     id="metadata3053">
    <rdf:RDF>
      <cc:Work
         rdf:about="">
        <dc:format>image/svg+xml</dc:format>
        <dc:type
           rdf:resource="http://purl.org/dc/dcmitype/StillImage" />
        <dc:title></dc:title>
      </cc:Work>
    </rdf:RDF>
  </metadata>
  <g
     inkscape:label="Camada 1"
     inkscape:groupmode="layer"
     id="layer1"
     transform="translate(0,-540.36218)">
    <path
       inkscape:export-ydpi="150.00482"
       inkscape:export-xdpi="150.00482"
       inkscape:export-filename="/home/lucasmac/hny_thc.png"
       inkscape:connector-curvature="0"
       id="path3065"
       d="m 272.505,546.42499 c -13.729,0 -24.85908,11.47435 -24.85908,25.61014 0,11.1968 6.96973,20.68652 16.69844,24.16033 l -4.59092,110.43975 c 0,0 -0.13574,0 -0.19394,0 -10.90313,0 -21.39893,1.71883 -31.21982,4.88542 -0.33946,-8.05503 -0.73711,-17.42758 -1.18701,-27.0327 -0.96006,-20.77486 -1.90752,-40.61602 -1.90752,-40.61602 l -0.27159,-5.6912 -5.71777,0.16098 -50.06649,1.77158 -7.56905,-10.06653 c 3.87813,-4.51458 6.22696,-10.43747 6.22696,-16.93912 l 0,-0.13674 c -0.13584,-14.08652 -11.17569,-25.47602 -24.85822,-25.47602 -13.72907,0 -24.85818,11.47483 -24.85818,25.61004 0,14.13541 11.12911,25.5831 24.85818,25.5831 3.27104,0 6.40246,-0.67012 9.26134,-1.85207 l 9.45039,12.61683 1.8251,2.416 3.00635,-0.10862 47.40829,-1.63726 c 0.22305,4.46609 0.81465,17.07759 1.63799,34.92471 0.5042,10.96221 0.98232,22.19256 1.33633,30.92536 -14.82979,6.87453 -27.6793,17.2316 -37.52929,30.03978 l -66.41388,-34.0396 0,-44.05212 0,-3.38275 -2.92677,-1.63756 -21.635624,-12.37527 c 1.268467,-3.07079 1.986094,-6.43997 1.986094,-9.98653 l 0,-0.13673 c -0.135762,-14.08683 -11.175653,-25.44888 -24.85818,-25.44888 -13.731014,0 -24.885338,11.4473 -24.885338,25.583 0,14.13569 11.154324,25.58347 24.885338,25.58347 6.162909,0 11.788553,-2.297 16.133142,-6.12082 l 19.730988,11.32869 0,44.18623 0,3.54365 3.16825,1.63756 68.23902,34.95216 c -5.53837,9.24319 -9.63857,19.45859 -11.99999,30.33487 L 62.636544,756.07636 c 0.174561,-1.24539 0.271534,-2.51385 0.271534,-3.8118 l 0,-0.13674 c 0,-14.0872 -11.175663,-25.47563 -24.857213,-25.47563 -13.730037,0 -24.85818,11.47396 -24.85818,25.60956 0,14.1357 11.128143,25.58319 24.85818,25.58319 8.451571,0 15.911062,-4.34332 20.40111,-10.97929 L 158.98637,797.5221 c -0.32969,3.33534 -0.4752,6.72267 -0.4752,10.14761 0,2.14116 0.13575,4.25478 0.22305,6.36229 l -102.331376,-8.993 -8.536912,-0.77872 2.54953,8.18798 6.522695,21.28787 c -6.50329,4.61573 -10.763504,12.32435 -10.763504,21.07375 0,14.13482 11.128142,25.60955 24.858179,25.60955 13.72907,0 24.85818,-11.47473 24.85818,-25.60955 l 0,-0.13674 c 0,-14.08692 -11.175653,-25.44907 -24.85818,-25.44907 -1.105537,0 -2.20332,0.097 -3.275888,0.24147 l -3.75787,-12.1334 96.104486,8.45592 c 2.30419,12.82544 7.03085,24.77411 13.66503,35.40825 L 67.568809,906.02715 c -4.499745,-6.57476 -11.945662,-10.87183 -20.34777,-10.87183 -13.730047,0 -24.85818,11.44768 -24.85818,25.5826 0,14.1358 11.128133,25.61083 24.85818,25.61083 13.72907,0 24.859147,-11.47503 24.859147,-25.61083 l 0,-0.10861 c 0,-1.30279 -0.135762,-2.58997 -0.300625,-3.83875 L 180.60746,870.85873 c 4.40273,5.49969 9.37383,10.5137 14.81904,14.97931 l -49.28769,95.24544 c -2.04331,-0.55956 -4.1739,-0.83207 -6.38886,-0.83207 -13.73004,0 -24.88631,11.44894 -24.88631,25.58389 0,14.1357 11.15627,25.6094 24.88631,25.6094 13.72909,0 24.85819,-11.473 24.85819,-25.6094 l 0,-0.1368 c 0,-7.55932 -3.2623,-14.31817 -8.3498,-18.97831 l 48.59052,-94.01122 c 9.97217,6.40913 21.16338,11.10564 33.15263,13.69077 l -2.20039,27.48985 c -11.95927,1.85382 -21.12753,12.48505 -21.12753,25.31359 0,14.13579 11.12822,25.58386 24.8582,25.58386 13.73007,0 24.85819,-11.44807 24.85819,-25.58386 l 0,-0.13674 c 0,-11.28427 -7.20253,-20.83343 -17.07284,-24.18701 l 2.14804,-26.68348 c 3.31758,0.32487 6.68663,0.5101 10.09336,0.5101 4.92168,0 9.73945,-0.37239 14.46904,-1.04629 l 11.78564,82.49478 c -9.46015,3.61909 -16.21552,12.99906 -16.21552,23.99906 0,14.135 11.12812,25.5828 24.8582,25.5828 13.73095,0 24.85908,-11.4478 24.85908,-25.5828 l 0,-0.1367 c 0,-13.1106 -9.67442,-23.88641 -22.04004,-25.31489 l -11.89131,-83.32635 c 5.31143,-1.39211 10.45225,-3.20248 15.38057,-5.39582 l 20.9122,33.04617 c -3.91299,4.52302 -6.28222,10.48498 -6.28222,17.01941 0,14.13511 11.13007,25.58299 24.86015,25.58299 13.73007,0 24.8582,-11.44788 24.8582,-25.58299 l 0,-0.13674 c -0.13574,-14.08711 -11.17666,-25.47553 -24.8582,-25.47553 -3.2332,0 -6.32197,0.64199 -9.15469,1.79825 l -19.9996,-31.59617 c 7.54482,-4.46706 14.45742,-9.86841 20.56308,-16.0798 l 60.88427,60.37349 -21.07314,30.8184 -2.792,4.05306 3.57071,3.40954 30.81747,29.12628 c -2.7251,4.1074 -4.32138,9.0926 -4.32138,14.4433 0,14.1352 11.1291,25.5827 24.8582,25.5827 13.72909,0 24.85819,-11.4475 24.85819,-25.5827 l 0,-0.1367 c -0.13574,-14.0875 -11.17665,-25.47672 -24.85819,-25.47672 -4.40176,0 -8.52139,1.1827 -12.10762,3.2482 l -27.73066,-26.20063 21.07412,-30.73743 2.71054,-3.97287 -3.46308,-3.40885 -64.77694,-64.26635 c 4.1914,-5.37554 7.82802,-11.19524 10.87216,-17.36891 l 89.98427,21.28825 c 1.17343,13.00727 11.80888,23.19367 24.75146,23.19367 13.73007,0 24.8582,-11.47455 24.8582,-25.60995 l 0,-0.13674 c 0,-14.08604 -11.17569,-25.44867 -24.8582,-25.44867 -10.61807,0 -19.68447,6.83834 -23.24834,16.48283 L 354.7505,841.66567 c 2.06562,-5.81233 3.60947,-11.86682 4.58994,-18.12097 l 73.98485,-1.52963 2.0666,-0.0582 1.55557,-1.31501 38.44374,-32.99263 1.8251,-1.55668 0.22305,-2.30864 1.61074,-19.32854 c 11.28623,-2.41948 19.75723,-12.70712 19.75723,-25.04602 l 0,-0.13674 c 0,-14.08721 -11.17568,-25.44887 -24.85722,-25.44887 -13.73203,0 -24.85918,11.44739 -24.85918,25.58309 0,11.81715 7.78828,21.77885 18.36172,24.72396 l -1.36934,16.32185 -35.03213,30.0391 -70.54804,1.4499 c 0,-1.42809 0.13584,-2.85307 0.13584,-4.29531 0,-6.99682 -0.69824,-13.83973 -2.04043,-20.42894 l 49.01904,0 4.96621,0 0.71768,-4.91258 2.9539,-19.16707 c 13.3334,-0.46355 23.99902,-11.71553 23.99902,-25.55652 l 0,-0.13674 c 0,-14.08632 -11.17666,-25.47592 -24.8582,-25.47592 -13.73007,0 -24.8582,11.47474 -24.8582,25.61005 0,10.27794 5.89815,19.12207 14.38848,23.19386 l -2.28282,14.87253 -47.13866,0 c -2.6834,-8.09372 -6.34814,-15.73437 -10.87119,-22.76464 l 43.37988,-46.2536 3.19541,-3.40923 -2.63096,-3.78522 -15.97314,-23.22091 39.56864,-14.60342 c 4.54629,6.07223 11.68281,9.98613 19.70479,9.98613 13.72909,0 24.85819,-11.44778 24.85819,-25.58308 l 0,-0.13674 c 0,-14.08682 -11.17665,-25.47593 -24.85819,-25.47593 -13.72998,0 -24.8582,11.47474 -24.8582,25.60996 0,1.70146 0.17461,3.35783 0.47519,4.9663 l -45.85175,16.99274 -6.95332,2.57698 4.18848,6.09395 17.52958,25.5025 -38.73759,41.2067 c -6.33164,-7.69175 -13.79208,-14.41664 -22.1205,-19.9457 8.47197,-14.3952 17.19023,-32.27374 24.94062,-48.96469 8.73183,-18.81009 15.89941,-35.67309 19.19375,-43.54211 1.43623,0.26571 2.91806,0.40245 4.4289,0.40245 13.7291,0 24.8582,-11.44777 24.8582,-25.58308 l 0,-0.13674 c -0.13574,-14.08643 -11.17656,-25.47554 -24.8582,-25.47554 -13.729,0 -24.85908,11.47474 -24.85908,25.60995 0,8.3511 3.89551,15.75716 9.90625,20.42884 -3.20898,7.6647 -10.43193,24.59431 -19.1666,43.40809 -7.6166,16.40215 -16.51816,34.23705 -24.53622,47.94459 -10.44541,-5.30359 -21.94697,-8.83095 -34.12051,-10.2278 l 4.53663,-109.92916 c 12.15214,-1.67946 21.52987,-12.37168 21.52987,-25.34161 l 0,-0.0485 0,-0.10861 c -0.13574,-14.08697 -11.17568,-25.47569 -24.85819,-25.47569 z"
       style="fill:#ffb701;fill-opacity:1;fill-rule:nonzero;stroke:none" />
  </g>
</svg>
